<svg width="701" height="769" viewBox="0 0 701 769" fill="none" xmlns="http://www.w3.org/2000/svg">
<path d="M661.2 0.662829C681.339 -3.43137 700.175 11.9604 700.175 32.5115V544.935C700.718 550.053 701 555.25 701 560.511C701 641.016 635.738 706.277 555.234 706.277C474.73 706.277 409.469 641.015 409.469 560.511C409.469 480.007 474.73 414.746 555.234 414.746C585.493 414.746 613.598 423.966 636.894 439.75V218.317C636.894 198.307 618.478 183.368 598.897 187.494L317.036 246.89C302.463 249.961 292.031 262.82 292.031 277.714V635.035C292.031 639.924 291.041 644.39 289.298 648.343C277.219 716.664 217.553 768.558 145.766 768.558C65.2615 768.558 0 703.297 0 622.793C0.000149637 542.289 65.2616 477.027 145.766 477.027C171.566 477.027 195.801 483.73 216.823 495.49V117.561C216.823 102.108 227.705 88.7913 242.849 85.7126L661.2 0.662829Z" fill="#D9D9D9"/>
</svg>
