<svg width="280" height="112" viewBox="0 0 280 112" fill="none" xmlns="http://www.w3.org/2000/svg">
<path d="M246.749 7.0418C256.221 -3.65482 268.781 1.05236 274.134 5.95378C279.486 10.8552 284.212 22.8739 270.196 37.5037L268.521 39.3268C233.322 77.3835 196.129 100.821 154.8 108.595C112.858 116.484 68.2019 107.951 19.1637 84.8777L18.9128 84.7558C-2.07657 74.2782 -0.573923 60.6927 3.1802 53.7891C6.9343 46.8855 14.8087 42.5831 24.1622 46.6544L26.3327 47.6667C71.8137 68.7036 111.074 75.3764 146.621 68.6897C182.69 61.9048 212.994 44.0437 246.559 7.24561L246.749 7.0418Z" fill="#D9D9D9"/>
</svg>
